<svg xmlns="http://www.w3.org/2000/svg" viewBox="0 0 24 24" fill="currentColor">
<path d="M12 2.2c3.2 0 3.6 0 4.9.1 1.2.1 1.9.3 2.4.5.6.2 1 .5 1.5 1 .5.4.8.9 1 1.5.2.5.4 1.2.5 2.4.1 1.3.1 1.7.1 4.9s0 3.6-.1 4.9c-.1 1.2-.3 1.9-.5 2.4-.2.6-.5 1-1 1.5-.4.5-.9.8-1.5 1-.5.2-1.2.4-2.4.5-1.3.1-1.7.1-4.9.1s-3.6 0-4.9-.1c-1.2-.1-1.9-.3-2.4-.5-.6-.2-1-.5-1.5-1-.5-.4-.8-.9-1-1.5-.2-.5-.4-1.2-.5-2.4C2.2 15.6 2.2 15.2 2.2 12s0-3.6.1-4.9c.1-1.2.3-1.9.5-2.4.2-.6.5-1 1-1.5.4-.5.9-.8 1.5-1 .5-.2 1.2-.4 2.4-.5C8.4 2.2 8.8 2.2 12 2.2zm0 1.8c-3.1 0-3.5 0-4.8.1-1 .1-1.6.2-2 .4-.5.2-.8.4-1.1.7-.3.3-.6.7-.7 1.1-.2.4-.3 1-.4 2-.1 1.3-.1 1.7-.1 4.8s0 3.5.1 4.8c.1 1 .2 1.6.4 2 .2.5.4.8.7 1.1.3.3.7.6 1.1.7.4.2 1 .3 2 .4 1.3.1 1.7.1 4.8.1s3.5 0 4.8-.1c1-.1 1.6-.2 2-.4.5-.2.8-.4 1.1-.7.3-.3.6-.7.7-1.1.2-.4.3-1 .4-2 .1-1.3.1-1.7.1-4.8s0-3.5-.1-4.8c-.1-1-.2-1.6-.4-2-.2-.5-.4-.8-.7-1.1-.3-.3-.7-.6-1.1-.7-.4-.2-1-.3-2-.4-1.3-.1-1.7-.1-4.8-.1zm0 3.1a5.9 5.9 0 110 11.8 5.9 5.9 0 010-11.8zm0 1.8a4.1 4.1 0 100 8.2 4.1 4.1 0 000-8.2zm6.1-.9a1.4 1.4 0 110 2.8 1.4 1.4 0 010-2.8z"/></svg>